<svg xmlns="http://www.w3.org/2000/svg" version="1.1" xmlns:xlink="http://www.w3.org/1999/xlink" xmlns:svgjs="http://svgjs.com/svgjs" width="1440" height="560" preserveAspectRatio="none" viewBox="0 0 1440 560"><g mask="url(&quot;#SvgjsMask1018&quot;)" fill="none"><path d="M-64.23 387.9L-64.23 387.9" stroke="rgba(255, 0, 128, 1)" stroke-width="1.5"></path><path d="M-64.23 387.9L-78.29 546.81" stroke="rgba(255, 0, 128, 1)" stroke-width="1.5"></path><path d="M-64.23 387.9L82.2 539.59" stroke="rgba(255, 0, 128, 1)" stroke-width="1.5"></path><path d="M-64.23 387.9L-110.5 657.62" stroke="rgba(255, 0, 128, 1)" stroke-width="1.5"></path><path d="M-78.29 546.81L-78.29 546.81" stroke="rgba(255, 0, 128, 1)" stroke-width="1.5"></path><path d="M-78.29 546.81L-110.5 657.62" stroke="rgba(255, 0, 128, 1)" stroke-width="1.5"></path><path d="M-78.29 546.81L82.2 539.59" stroke="rgba(255, 0, 128, 1)" stroke-width="1.5"></path><path d="M-110.5 657.62L-110.5 657.62" stroke="rgba(255, 0, 128, 1)" stroke-width="1.5"></path><path d="M82.2 539.59L82.2 539.59" stroke="rgba(255, 0, 128, 1)" stroke-width="1.5"></path><path d="M82.2 539.59L234.12 499.07" stroke="rgba(255, 0, 128, 1)" stroke-width="1.5"></path><path d="M82.2 539.59L57.29 704" stroke="rgba(255, 0, 128, 1)" stroke-width="1.5"></path><path d="M57.29 704L57.29 704" stroke="rgba(255, 0, 128, 1)" stroke-width="1.5"></path><path d="M57.29 704L-110.5 657.62" stroke="rgba(255, 0, 128, 1)" stroke-width="1.5"></path><path d="M57.29 704L233.33 696" stroke="rgba(255, 0, 128, 1)" stroke-width="1.5"></path><path d="M57.29 704L-78.29 546.81" stroke="rgba(255, 0, 128, 1)" stroke-width="1.5"></path><path d="M57.29 704L234.12 499.07" stroke="rgba(255, 0, 128, 1)" stroke-width="1.5"></path><path d="M213.18 370.19L213.18 370.19" stroke="rgba(255, 0, 128, 1)" stroke-width="1.5"></path><path d="M213.18 370.19L234.12 499.07" stroke="rgba(255, 0, 128, 1)" stroke-width="1.5"></path><path d="M213.18 370.19L82.2 539.59" stroke="rgba(255, 0, 128, 1)" stroke-width="1.5"></path><path d="M213.18 370.19L349.19 551.97" stroke="rgba(255, 0, 128, 1)" stroke-width="1.5"></path><path d="M213.18 370.19L-64.23 387.9" stroke="rgba(255, 0, 128, 1)" stroke-width="1.5"></path><path d="M213.18 370.19L353.63 639.57" stroke="rgba(255, 0, 128, 1)" stroke-width="1.5"></path><path d="M234.12 499.07L234.12 499.07" stroke="rgba(255, 0, 128, 1)" stroke-width="1.5"></path><path d="M234.12 499.07L349.19 551.97" stroke="rgba(255, 0, 128, 1)" stroke-width="1.5"></path><path d="M234.12 499.07L353.63 639.57" stroke="rgba(255, 0, 128, 1)" stroke-width="1.5"></path><path d="M234.12 499.07L233.33 696" stroke="rgba(255, 0, 128, 1)" stroke-width="1.5"></path><path d="M233.33 696L233.33 696" stroke="rgba(255, 0, 128, 1)" stroke-width="1.5"></path><path d="M233.33 696L353.63 639.57" stroke="rgba(255, 0, 128, 1)" stroke-width="1.5"></path><path d="M233.33 696L349.19 551.97" stroke="rgba(255, 0, 128, 1)" stroke-width="1.5"></path><path d="M349.19 551.97L349.19 551.97" stroke="rgba(255, 0, 128, 1)" stroke-width="1.5"></path><path d="M349.19 551.97L353.63 639.57" stroke="rgba(255, 0, 128, 1)" stroke-width="1.5"></path><path d="M349.19 551.97L501.74 685.82" stroke="rgba(255, 0, 128, 1)" stroke-width="1.5"></path><path d="M349.19 551.97L558.93 520.64" stroke="rgba(255, 0, 128, 1)" stroke-width="1.5"></path><path d="M353.63 639.57L353.63 639.57" stroke="rgba(255, 0, 128, 1)" stroke-width="1.5"></path><path d="M353.63 639.57L501.74 685.82" stroke="rgba(255, 0, 128, 1)" stroke-width="1.5"></path><path d="M522.94 391.68L522.94 391.68" stroke="rgba(255, 0, 128, 1)" stroke-width="1.5"></path><path d="M522.94 391.68L558.93 520.64" stroke="rgba(255, 0, 128, 1)" stroke-width="1.5"></path><path d="M522.94 391.68L689.43 362" stroke="rgba(255, 0, 128, 1)" stroke-width="1.5"></path><path d="M558.93 520.64L558.93 520.64" stroke="rgba(255, 0, 128, 1)" stroke-width="1.5"></path><path d="M558.93 520.64L662.91 512.96" stroke="rgba(255, 0, 128, 1)" stroke-width="1.5"></path><path d="M558.93 520.64L669.16 640.13" stroke="rgba(255, 0, 128, 1)" stroke-width="1.5"></path><path d="M558.93 520.64L501.74 685.82" stroke="rgba(255, 0, 128, 1)" stroke-width="1.5"></path><path d="M501.74 685.82L501.74 685.82" stroke="rgba(255, 0, 128, 1)" stroke-width="1.5"></path><path d="M501.74 685.82L669.16 640.13" stroke="rgba(255, 0, 128, 1)" stroke-width="1.5"></path><path d="M687.51 245.39L687.51 245.39" stroke="rgba(255, 0, 128, 1)" stroke-width="1.5"></path><path d="M687.51 245.39L689.43 362" stroke="rgba(255, 0, 128, 1)" stroke-width="1.5"></path><path d="M687.51 245.39L808.48 229.28" stroke="rgba(255, 0, 128, 1)" stroke-width="1.5"></path><path d="M687.51 245.39L847.49 342.95" stroke="rgba(255, 0, 128, 1)" stroke-width="1.5"></path><path d="M687.51 245.39L522.94 391.68" stroke="rgba(255, 0, 128, 1)" stroke-width="1.5"></path><path d="M687.51 245.39L849.89 61.65" stroke="rgba(255, 0, 128, 1)" stroke-width="1.5"></path><path d="M689.43 362L689.43 362" stroke="rgba(255, 0, 128, 1)" stroke-width="1.5"></path><path d="M689.43 362L662.91 512.96" stroke="rgba(255, 0, 128, 1)" stroke-width="1.5"></path><path d="M689.43 362L847.49 342.95" stroke="rgba(255, 0, 128, 1)" stroke-width="1.5"></path><path d="M689.43 362L808.48 229.28" stroke="rgba(255, 0, 128, 1)" stroke-width="1.5"></path><path d="M662.91 512.96L662.91 512.96" stroke="rgba(255, 0, 128, 1)" stroke-width="1.5"></path><path d="M662.91 512.96L669.16 640.13" stroke="rgba(255, 0, 128, 1)" stroke-width="1.5"></path><path d="M669.16 640.13L669.16 640.13" stroke="rgba(255, 0, 128, 1)" stroke-width="1.5"></path><path d="M669.16 640.13L801.14 670.94" stroke="rgba(255, 0, 128, 1)" stroke-width="1.5"></path><path d="M849.89 61.65L849.89 61.65" stroke="rgba(255, 0, 128, 1)" stroke-width="1.5"></path><path d="M849.89 61.65L1009.14 82.4" stroke="rgba(255, 0, 128, 1)" stroke-width="1.5"></path><path d="M849.89 61.65L808.48 229.28" stroke="rgba(255, 0, 128, 1)" stroke-width="1.5"></path><path d="M849.89 61.65L964.77 205.89" stroke="rgba(255, 0, 128, 1)" stroke-width="1.5"></path><path d="M849.89 61.65L974.28 -108.57" stroke="rgba(255, 0, 128, 1)" stroke-width="1.5"></path><path d="M808.48 229.28L808.48 229.28" stroke="rgba(255, 0, 128, 1)" stroke-width="1.5"></path><path d="M808.48 229.28L847.49 342.95" stroke="rgba(255, 0, 128, 1)" stroke-width="1.5"></path><path d="M847.49 342.95L847.49 342.95" stroke="rgba(255, 0, 128, 1)" stroke-width="1.5"></path><path d="M847.49 342.95L950.55 406" stroke="rgba(255, 0, 128, 1)" stroke-width="1.5"></path><path d="M831.56 537.69L831.56 537.69" stroke="rgba(255, 0, 128, 1)" stroke-width="1.5"></path><path d="M831.56 537.69L801.14 670.94" stroke="rgba(255, 0, 128, 1)" stroke-width="1.5"></path><path d="M831.56 537.69L975.05 508.87" stroke="rgba(255, 0, 128, 1)" stroke-width="1.5"></path><path d="M831.56 537.69L662.91 512.96" stroke="rgba(255, 0, 128, 1)" stroke-width="1.5"></path><path d="M831.56 537.69L950.55 406" stroke="rgba(255, 0, 128, 1)" stroke-width="1.5"></path><path d="M831.56 537.69L974.65 656.98" stroke="rgba(255, 0, 128, 1)" stroke-width="1.5"></path><path d="M831.56 537.69L669.16 640.13" stroke="rgba(255, 0, 128, 1)" stroke-width="1.5"></path><path d="M801.14 670.94L801.14 670.94" stroke="rgba(255, 0, 128, 1)" stroke-width="1.5"></path><path d="M974.28 -108.57L974.28 -108.57" stroke="rgba(255, 0, 128, 1)" stroke-width="1.5"></path><path d="M974.28 -108.57L1097.39 -85.35" stroke="rgba(255, 0, 128, 1)" stroke-width="1.5"></path><path d="M974.28 -108.57L1009.14 82.4" stroke="rgba(255, 0, 128, 1)" stroke-width="1.5"></path><path d="M974.28 -108.57L1125.46 45.13" stroke="rgba(255, 0, 128, 1)" stroke-width="1.5"></path><path d="M1009.14 82.4L1009.14 82.4" stroke="rgba(255, 0, 128, 1)" stroke-width="1.5"></path><path d="M1009.14 82.4L1125.46 45.13" stroke="rgba(255, 0, 128, 1)" stroke-width="1.5"></path><path d="M1009.14 82.4L964.77 205.89" stroke="rgba(255, 0, 128, 1)" stroke-width="1.5"></path><path d="M1009.14 82.4L1090.86 222.29" stroke="rgba(255, 0, 128, 1)" stroke-width="1.5"></path><path d="M964.77 205.89L964.77 205.89" stroke="rgba(255, 0, 128, 1)" stroke-width="1.5"></path><path d="M964.77 205.89L1090.86 222.29" stroke="rgba(255, 0, 128, 1)" stroke-width="1.5"></path><path d="M964.77 205.89L808.48 229.28" stroke="rgba(255, 0, 128, 1)" stroke-width="1.5"></path><path d="M964.77 205.89L847.49 342.95" stroke="rgba(255, 0, 128, 1)" stroke-width="1.5"></path><path d="M950.55 406L950.55 406" stroke="rgba(255, 0, 128, 1)" stroke-width="1.5"></path><path d="M950.55 406L975.05 508.87" stroke="rgba(255, 0, 128, 1)" stroke-width="1.5"></path><path d="M950.55 406L964.77 205.89" stroke="rgba(255, 0, 128, 1)" stroke-width="1.5"></path><path d="M950.55 406L1161.52 368.01" stroke="rgba(255, 0, 128, 1)" stroke-width="1.5"></path><path d="M950.55 406L1153.19 492.75" stroke="rgba(255, 0, 128, 1)" stroke-width="1.5"></path><path d="M975.05 508.87L975.05 508.87" stroke="rgba(255, 0, 128, 1)" stroke-width="1.5"></path><path d="M975.05 508.87L974.65 656.98" stroke="rgba(255, 0, 128, 1)" stroke-width="1.5"></path><path d="M975.05 508.87L1153.19 492.75" stroke="rgba(255, 0, 128, 1)" stroke-width="1.5"></path><path d="M974.65 656.98L974.65 656.98" stroke="rgba(255, 0, 128, 1)" stroke-width="1.5"></path><path d="M974.65 656.98L801.14 670.94" stroke="rgba(255, 0, 128, 1)" stroke-width="1.5"></path><path d="M1097.39 -85.35L1097.39 -85.35" stroke="rgba(255, 0, 128, 1)" stroke-width="1.5"></path><path d="M1097.39 -85.35L1125.46 45.13" stroke="rgba(255, 0, 128, 1)" stroke-width="1.5"></path><path d="M1097.39 -85.35L1009.14 82.4" stroke="rgba(255, 0, 128, 1)" stroke-width="1.5"></path><path d="M1125.46 45.13L1125.46 45.13" stroke="rgba(255, 0, 128, 1)" stroke-width="1.5"></path><path d="M1125.46 45.13L1295.2 72.24" stroke="rgba(255, 0, 128, 1)" stroke-width="1.5"></path><path d="M1125.46 45.13L1090.86 222.29" stroke="rgba(255, 0, 128, 1)" stroke-width="1.5"></path><path d="M1090.86 222.29L1090.86 222.29" stroke="rgba(255, 0, 128, 1)" stroke-width="1.5"></path><path d="M1090.86 222.29L1161.52 368.01" stroke="rgba(255, 0, 128, 1)" stroke-width="1.5"></path><path d="M1090.86 222.29L1284.39 228.55" stroke="rgba(255, 0, 128, 1)" stroke-width="1.5"></path><path d="M1090.86 222.29L950.55 406" stroke="rgba(255, 0, 128, 1)" stroke-width="1.5"></path><path d="M1161.52 368.01L1161.52 368.01" stroke="rgba(255, 0, 128, 1)" stroke-width="1.5"></path><path d="M1161.52 368.01L1275.31 385.21" stroke="rgba(255, 0, 128, 1)" stroke-width="1.5"></path><path d="M1161.52 368.01L1153.19 492.75" stroke="rgba(255, 0, 128, 1)" stroke-width="1.5"></path><path d="M1161.52 368.01L1284.39 228.55" stroke="rgba(255, 0, 128, 1)" stroke-width="1.5"></path><path d="M1153.19 492.75L1153.19 492.75" stroke="rgba(255, 0, 128, 1)" stroke-width="1.5"></path><path d="M1153.19 492.75L1282.24 549.03" stroke="rgba(255, 0, 128, 1)" stroke-width="1.5"></path><path d="M1153.19 492.75L1275.31 385.21" stroke="rgba(255, 0, 128, 1)" stroke-width="1.5"></path><path d="M1153.19 492.75L1150.04 684.49" stroke="rgba(255, 0, 128, 1)" stroke-width="1.5"></path><path d="M1150.04 684.49L1150.04 684.49" stroke="rgba(255, 0, 128, 1)" stroke-width="1.5"></path><path d="M1150.04 684.49L1266.7 686.44" stroke="rgba(255, 0, 128, 1)" stroke-width="1.5"></path><path d="M1150.04 684.49L974.65 656.98" stroke="rgba(255, 0, 128, 1)" stroke-width="1.5"></path><path d="M1150.04 684.49L1282.24 549.03" stroke="rgba(255, 0, 128, 1)" stroke-width="1.5"></path><path d="M1295.2 72.24L1295.2 72.24" stroke="rgba(255, 0, 128, 1)" stroke-width="1.5"></path><path d="M1295.2 72.24L1448.75 99.68" stroke="rgba(255, 0, 128, 1)" stroke-width="1.5"></path><path d="M1295.2 72.24L1284.39 228.55" stroke="rgba(255, 0, 128, 1)" stroke-width="1.5"></path><path d="M1295.2 72.24L1421.77 259.7" stroke="rgba(255, 0, 128, 1)" stroke-width="1.5"></path><path d="M1295.2 72.24L1451.8 -108.78" stroke="rgba(255, 0, 128, 1)" stroke-width="1.5"></path><path d="M1295.2 72.24L1097.39 -85.35" stroke="rgba(255, 0, 128, 1)" stroke-width="1.5"></path><path d="M1284.39 228.55L1284.39 228.55" stroke="rgba(255, 0, 128, 1)" stroke-width="1.5"></path><path d="M1284.39 228.55L1421.77 259.7" stroke="rgba(255, 0, 128, 1)" stroke-width="1.5"></path><path d="M1275.31 385.21L1275.31 385.21" stroke="rgba(255, 0, 128, 1)" stroke-width="1.5"></path><path d="M1275.31 385.21L1284.39 228.55" stroke="rgba(255, 0, 128, 1)" stroke-width="1.5"></path><path d="M1275.31 385.21L1282.24 549.03" stroke="rgba(255, 0, 128, 1)" stroke-width="1.5"></path><path d="M1275.31 385.21L1442.67 368" stroke="rgba(255, 0, 128, 1)" stroke-width="1.5"></path><path d="M1275.31 385.21L1421.77 259.7" stroke="rgba(255, 0, 128, 1)" stroke-width="1.5"></path><path d="M1282.24 549.03L1282.24 549.03" stroke="rgba(255, 0, 128, 1)" stroke-width="1.5"></path><path d="M1282.24 549.03L1266.7 686.44" stroke="rgba(255, 0, 128, 1)" stroke-width="1.5"></path><path d="M1282.24 549.03L1431.22 522.89" stroke="rgba(255, 0, 128, 1)" stroke-width="1.5"></path><path d="M1266.7 686.44L1266.7 686.44" stroke="rgba(255, 0, 128, 1)" stroke-width="1.5"></path><path d="M1266.7 686.44L1448.94 647.88" stroke="rgba(255, 0, 128, 1)" stroke-width="1.5"></path><path d="M1266.7 686.44L1153.19 492.75" stroke="rgba(255, 0, 128, 1)" stroke-width="1.5"></path><path d="M1266.7 686.44L1431.22 522.89" stroke="rgba(255, 0, 128, 1)" stroke-width="1.5"></path><path d="M1451.8 -108.78L1451.8 -108.78" stroke="rgba(255, 0, 128, 1)" stroke-width="1.5"></path><path d="M1451.8 -108.78L1581.44 -95.17" stroke="rgba(255, 0, 128, 1)" stroke-width="1.5"></path><path d="M1451.8 -108.78L1448.75 99.68" stroke="rgba(255, 0, 128, 1)" stroke-width="1.5"></path><path d="M1448.75 99.68L1448.75 99.68" stroke="rgba(255, 0, 128, 1)" stroke-width="1.5"></path><path d="M1448.75 99.68L1607.2 92.02" stroke="rgba(255, 0, 128, 1)" stroke-width="1.5"></path><path d="M1448.75 99.68L1421.77 259.7" stroke="rgba(255, 0, 128, 1)" stroke-width="1.5"></path><path d="M1448.75 99.68L1571.81 209.93" stroke="rgba(255, 0, 128, 1)" stroke-width="1.5"></path><path d="M1421.77 259.7L1421.77 259.7" stroke="rgba(255, 0, 128, 1)" stroke-width="1.5"></path><path d="M1421.77 259.7L1442.67 368" stroke="rgba(255, 0, 128, 1)" stroke-width="1.5"></path><path d="M1421.77 259.7L1571.81 209.93" stroke="rgba(255, 0, 128, 1)" stroke-width="1.5"></path><path d="M1421.77 259.7L1544.48 401.17" stroke="rgba(255, 0, 128, 1)" stroke-width="1.5"></path><path d="M1442.67 368L1442.67 368" stroke="rgba(255, 0, 128, 1)" stroke-width="1.5"></path><path d="M1442.67 368L1544.48 401.17" stroke="rgba(255, 0, 128, 1)" stroke-width="1.5"></path><path d="M1442.67 368L1431.22 522.89" stroke="rgba(255, 0, 128, 1)" stroke-width="1.5"></path><path d="M1431.22 522.89L1431.22 522.89" stroke="rgba(255, 0, 128, 1)" stroke-width="1.5"></path><path d="M1431.22 522.89L1448.94 647.88" stroke="rgba(255, 0, 128, 1)" stroke-width="1.5"></path><path d="M1448.94 647.88L1448.94 647.88" stroke="rgba(255, 0, 128, 1)" stroke-width="1.5"></path><path d="M1448.94 647.88L1559.37 705.5" stroke="rgba(255, 0, 128, 1)" stroke-width="1.5"></path><path d="M1581.44 -95.17L1581.44 -95.17" stroke="rgba(255, 0, 128, 1)" stroke-width="1.5"></path><path d="M1581.44 -95.17L1607.2 92.02" stroke="rgba(255, 0, 128, 1)" stroke-width="1.5"></path><path d="M1581.44 -95.17L1448.75 99.68" stroke="rgba(255, 0, 128, 1)" stroke-width="1.5"></path><path d="M1581.44 -95.17L1571.81 209.93" stroke="rgba(255, 0, 128, 1)" stroke-width="1.5"></path><path d="M1607.2 92.02L1607.2 92.02" stroke="rgba(255, 0, 128, 1)" stroke-width="1.5"></path><path d="M1607.2 92.02L1571.81 209.93" stroke="rgba(255, 0, 128, 1)" stroke-width="1.5"></path><path d="M1571.81 209.93L1571.81 209.93" stroke="rgba(255, 0, 128, 1)" stroke-width="1.5"></path><path d="M1571.81 209.93L1544.48 401.17" stroke="rgba(255, 0, 128, 1)" stroke-width="1.5"></path><path d="M1571.81 209.93L1442.67 368" stroke="rgba(255, 0, 128, 1)" stroke-width="1.5"></path><path d="M1544.48 401.17L1544.48 401.17" stroke="rgba(255, 0, 128, 1)" stroke-width="1.5"></path><path d="M1544.48 401.17L1595.25 516.52" stroke="rgba(255, 0, 128, 1)" stroke-width="1.5"></path><path d="M1544.48 401.17L1431.22 522.89" stroke="rgba(255, 0, 128, 1)" stroke-width="1.5"></path><path d="M1595.25 516.52L1595.25 516.52" stroke="rgba(255, 0, 128, 1)" stroke-width="1.5"></path><path d="M1595.25 516.52L1431.22 522.89" stroke="rgba(255, 0, 128, 1)" stroke-width="1.5"></path><path d="M1595.25 516.52L1559.37 705.5" stroke="rgba(255, 0, 128, 1)" stroke-width="1.5"></path><path d="M1595.25 516.52L1448.94 647.88" stroke="rgba(255, 0, 128, 1)" stroke-width="1.5"></path><path d="M1595.25 516.52L1442.67 368" stroke="rgba(255, 0, 128, 1)" stroke-width="1.5"></path><path d="M1595.25 516.52L1571.81 209.93" stroke="rgba(255, 0, 128, 1)" stroke-width="1.5"></path><path d="M1559.37 705.5L1559.37 705.5" stroke="rgba(255, 0, 128, 1)" stroke-width="1.5"></path><path d="M1559.37 705.5L1431.22 522.89" stroke="rgba(255, 0, 128, 1)" stroke-width="1.5"></path><path d="M1559.37 705.5L1266.7 686.44" stroke="rgba(255, 0, 128, 1)" stroke-width="1.5"></path><path d="M1559.37 705.5L1544.48 401.17" stroke="rgba(255, 0, 128, 1)" stroke-width="1.5"></path><path d="M1559.37 705.5L1282.24 549.03" stroke="rgba(255, 0, 128, 1)" stroke-width="1.5"></path><circle r="5" cx="-64.23" cy="387.9" fill="rgba(255, 0, 128, 1)"></circle><circle r="5" cx="-78.29" cy="546.81" fill="rgba(255, 0, 128, 1)"></circle><circle r="5" cx="-110.5" cy="657.62" fill="rgba(255, 0, 128, 1)"></circle><circle r="5" cx="82.2" cy="539.59" fill="rgba(255, 0, 128, 1)"></circle><circle r="5" cx="57.29" cy="704" fill="rgba(255, 0, 128, 1)"></circle><circle r="5" cx="213.18" cy="370.19" fill="rgba(255, 0, 128, 1)"></circle><circle r="5" cx="234.12" cy="499.07" fill="rgba(255, 0, 128, 1)"></circle><circle r="5" cx="233.33" cy="696" fill="rgba(255, 0, 128, 1)"></circle><circle r="5" cx="349.19" cy="551.97" fill="rgba(255, 0, 128, 1)"></circle><circle r="5" cx="353.63" cy="639.57" fill="rgba(255, 0, 128, 1)"></circle><circle r="5" cx="522.94" cy="391.68" fill="rgba(255, 0, 128, 1)"></circle><circle r="5" cx="558.93" cy="520.64" fill="rgba(255, 0, 128, 1)"></circle><circle r="5" cx="501.74" cy="685.82" fill="rgba(255, 0, 128, 1)"></circle><circle r="5" cx="687.51" cy="245.39" fill="rgba(255, 0, 128, 1)"></circle><circle r="5" cx="689.43" cy="362" fill="rgba(255, 0, 128, 1)"></circle><circle r="5" cx="662.91" cy="512.96" fill="rgba(255, 0, 128, 1)"></circle><circle r="5" cx="669.16" cy="640.13" fill="rgba(255, 0, 128, 1)"></circle><circle r="5" cx="849.89" cy="61.65" fill="rgba(255, 0, 128, 1)"></circle><circle r="5" cx="808.48" cy="229.28" fill="rgba(255, 0, 128, 1)"></circle><circle r="5" cx="847.49" cy="342.95" fill="rgba(255, 0, 128, 1)"></circle><circle r="5" cx="831.56" cy="537.69" fill="rgba(255, 0, 128, 1)"></circle><circle r="5" cx="801.14" cy="670.94" fill="rgba(255, 0, 128, 1)"></circle><circle r="5" cx="974.28" cy="-108.57" fill="rgba(255, 0, 128, 1)"></circle><circle r="5" cx="1009.14" cy="82.4" fill="rgba(255, 0, 128, 1)"></circle><circle r="5" cx="964.77" cy="205.89" fill="rgba(255, 0, 128, 1)"></circle><circle r="5" cx="950.55" cy="406" fill="rgba(255, 0, 128, 1)"></circle><circle r="5" cx="975.05" cy="508.87" fill="rgba(255, 0, 128, 1)"></circle><circle r="5" cx="974.65" cy="656.98" fill="rgba(255, 0, 128, 1)"></circle><circle r="5" cx="1097.39" cy="-85.35" fill="rgba(255, 0, 128, 1)"></circle><circle r="5" cx="1125.46" cy="45.13" fill="rgba(255, 0, 128, 1)"></circle><circle r="5" cx="1090.86" cy="222.29" fill="rgba(255, 0, 128, 1)"></circle><circle r="5" cx="1161.52" cy="368.01" fill="rgba(255, 0, 128, 1)"></circle><circle r="5" cx="1153.19" cy="492.75" fill="rgba(255, 0, 128, 1)"></circle><circle r="5" cx="1150.04" cy="684.49" fill="rgba(255, 0, 128, 1)"></circle><circle r="5" cx="1295.2" cy="72.24" fill="rgba(255, 0, 128, 1)"></circle><circle r="5" cx="1284.39" cy="228.55" fill="rgba(255, 0, 128, 1)"></circle><circle r="5" cx="1275.31" cy="385.21" fill="rgba(255, 0, 128, 1)"></circle><circle r="5" cx="1282.24" cy="549.03" fill="rgba(255, 0, 128, 1)"></circle><circle r="5" cx="1266.7" cy="686.44" fill="rgba(255, 0, 128, 1)"></circle><circle r="5" cx="1451.8" cy="-108.78" fill="rgba(255, 0, 128, 1)"></circle><circle r="5" cx="1448.75" cy="99.68" fill="rgba(255, 0, 128, 1)"></circle><circle r="5" cx="1421.77" cy="259.7" fill="rgba(255, 0, 128, 1)"></circle><circle r="5" cx="1442.67" cy="368" fill="rgba(255, 0, 128, 1)"></circle><circle r="5" cx="1431.22" cy="522.89" fill="rgba(255, 0, 128, 1)"></circle><circle r="5" cx="1448.94" cy="647.88" fill="rgba(255, 0, 128, 1)"></circle><circle r="5" cx="1581.44" cy="-95.17" fill="rgba(255, 0, 128, 1)"></circle><circle r="5" cx="1607.2" cy="92.02" fill="rgba(255, 0, 128, 1)"></circle><circle r="5" cx="1571.81" cy="209.93" fill="rgba(255, 0, 128, 1)"></circle><circle r="5" cx="1544.48" cy="401.17" fill="rgba(255, 0, 128, 1)"></circle><circle r="5" cx="1595.25" cy="516.52" fill="rgba(255, 0, 128, 1)"></circle><circle r="5" cx="1559.37" cy="705.5" fill="rgba(255, 0, 128, 1)"></circle><path d="M68.62 492.36L68.62 492.36" stroke="hsl(270, 66.9%, 61.7%)" stroke-width="1.5"></path><path d="M68.62 492.36L-49.56 515.06" stroke="hsl(270, 66.9%, 61.7%)" stroke-width="1.5"></path><path d="M68.62 492.36L220.28 543.24" stroke="hsl(270, 66.9%, 61.7%)" stroke-width="1.5"></path><path d="M68.62 492.36L96.69 654.19" stroke="hsl(270, 66.9%, 61.7%)" stroke-width="1.5"></path><path d="M68.62 492.36L-82.13 672.57" stroke="hsl(270, 66.9%, 61.7%)" stroke-width="1.5"></path><path d="M68.62 492.36L244.6 648.52" stroke="hsl(270, 66.9%, 61.7%)" stroke-width="1.5"></path><path d="M68.62 492.36L385.28 521.23" stroke="hsl(270, 66.9%, 61.7%)" stroke-width="1.5"></path><path d="M244.6 648.52L244.6 648.52" stroke="hsl(270, 66.9%, 61.7%)" stroke-width="1.5"></path><path d="M244.6 648.52L220.28 543.24" stroke="hsl(270, 66.9%, 61.7%)" stroke-width="1.5"></path><path d="M244.6 648.52L362.6 652.49" stroke="hsl(270, 66.9%, 61.7%)" stroke-width="1.5"></path><path d="M244.6 648.52L96.69 654.19" stroke="hsl(270, 66.9%, 61.7%)" stroke-width="1.5"></path><path d="M650.28 542.74L650.28 542.74" stroke="hsl(270, 66.9%, 61.7%)" stroke-width="1.5"></path><path d="M650.28 542.74L552.5 535.89" stroke="hsl(270, 66.9%, 61.7%)" stroke-width="1.5"></path><path d="M650.28 542.74L675.63 667.62" stroke="hsl(270, 66.9%, 61.7%)" stroke-width="1.5"></path><path d="M650.28 542.74L812.65 539.5" stroke="hsl(270, 66.9%, 61.7%)" stroke-width="1.5"></path><path d="M650.28 542.74L517.58 655.95" stroke="hsl(270, 66.9%, 61.7%)" stroke-width="1.5"></path><path d="M650.28 542.74L818.3 340.32" stroke="hsl(270, 66.9%, 61.7%)" stroke-width="1.5"></path><path d="M1455.78 -102.38L1455.78 -102.38" stroke="hsl(270, 66.9%, 61.7%)" stroke-width="1.5"></path><path d="M1455.78 -102.38L1569.63 -96.4" stroke="hsl(270, 66.9%, 61.7%)" stroke-width="1.5"></path><path d="M1455.78 -102.38L1423.35 46.11" stroke="hsl(270, 66.9%, 61.7%)" stroke-width="1.5"></path><path d="M1455.78 -102.38L1251.05 -50.65" stroke="hsl(270, 66.9%, 61.7%)" stroke-width="1.5"></path><path d="M1455.78 -102.38L1586.86 66.08" stroke="hsl(270, 66.9%, 61.7%)" stroke-width="1.5"></path><path d="M1455.78 -102.38L1281.25 84.93" stroke="hsl(270, 66.9%, 61.7%)" stroke-width="1.5"></path><path d="M1423.35 46.11L1423.35 46.11" stroke="hsl(270, 66.9%, 61.7%)" stroke-width="1.5"></path><path d="M1423.35 46.11L1281.25 84.93" stroke="hsl(270, 66.9%, 61.7%)" stroke-width="1.5"></path><path d="M1423.35 46.11L1436.23 207.02" stroke="hsl(270, 66.9%, 61.7%)" stroke-width="1.5"></path><path d="M1586.86 66.08L1586.86 66.08" stroke="hsl(270, 66.9%, 61.7%)" stroke-width="1.5"></path><path d="M1586.86 66.08L1569.63 -96.4" stroke="hsl(270, 66.9%, 61.7%)" stroke-width="1.5"></path><path d="M1586.86 66.08L1423.35 46.11" stroke="hsl(270, 66.9%, 61.7%)" stroke-width="1.5"></path><path d="M1607.64 514.24L1607.64 514.24" stroke="hsl(270, 66.9%, 61.7%)" stroke-width="1.5"></path><path d="M1607.64 514.24L1589.09 409.29" stroke="hsl(270, 66.9%, 61.7%)" stroke-width="1.5"></path><path d="M1607.64 514.24L1443.36 511.65" stroke="hsl(270, 66.9%, 61.7%)" stroke-width="1.5"></path><path d="M1607.64 514.24L1589.14 677.73" stroke="hsl(270, 66.9%, 61.7%)" stroke-width="1.5"></path><path d="M1607.64 514.24L1442.52 658.37" stroke="hsl(270, 66.9%, 61.7%)" stroke-width="1.5"></path><path d="M1607.64 514.24L1460.1 337.76" stroke="hsl(270, 66.9%, 61.7%)" stroke-width="1.5"></path><path d="M1607.64 514.24L1606.51 247.94" stroke="hsl(270, 66.9%, 61.7%)" stroke-width="1.5"></path><path d="M-49.56 515.06L-49.56 515.06" stroke="hsl(270, 66.9%, 61.7%)" stroke-width="1.5"></path><path d="M-49.56 515.06L-82.13 672.57" stroke="hsl(270, 66.9%, 61.7%)" stroke-width="1.5"></path><path d="M-49.56 515.06L96.69 654.19" stroke="hsl(270, 66.9%, 61.7%)" stroke-width="1.5"></path><path d="M-82.13 672.57L-82.13 672.57" stroke="hsl(270, 66.9%, 61.7%)" stroke-width="1.5"></path><path d="M-82.13 672.57L96.69 654.19" stroke="hsl(270, 66.9%, 61.7%)" stroke-width="1.5"></path><path d="M-82.13 672.57L244.6 648.52" stroke="hsl(270, 66.9%, 61.7%)" stroke-width="1.5"></path><path d="M-82.13 672.57L220.28 543.24" stroke="hsl(270, 66.9%, 61.7%)" stroke-width="1.5"></path><path d="M96.69 654.19L96.69 654.19" stroke="hsl(270, 66.9%, 61.7%)" stroke-width="1.5"></path><path d="M96.69 654.19L220.28 543.24" stroke="hsl(270, 66.9%, 61.7%)" stroke-width="1.5"></path><path d="M220.28 543.24L220.28 543.24" stroke="hsl(270, 66.9%, 61.7%)" stroke-width="1.5"></path><path d="M385.28 521.23L385.28 521.23" stroke="hsl(270, 66.9%, 61.7%)" stroke-width="1.5"></path><path d="M385.28 521.23L362.6 652.49" stroke="hsl(270, 66.9%, 61.7%)" stroke-width="1.5"></path><path d="M385.28 521.23L220.28 543.24" stroke="hsl(270, 66.9%, 61.7%)" stroke-width="1.5"></path><path d="M385.28 521.23L552.5 535.89" stroke="hsl(270, 66.9%, 61.7%)" stroke-width="1.5"></path><path d="M385.28 521.23L517.58 655.95" stroke="hsl(270, 66.9%, 61.7%)" stroke-width="1.5"></path><path d="M362.6 652.49L362.6 652.49" stroke="hsl(270, 66.9%, 61.7%)" stroke-width="1.5"></path><path d="M552.5 535.89L552.5 535.89" stroke="hsl(270, 66.9%, 61.7%)" stroke-width="1.5"></path><path d="M552.5 535.89L517.58 655.95" stroke="hsl(270, 66.9%, 61.7%)" stroke-width="1.5"></path><path d="M517.58 655.95L517.58 655.95" stroke="hsl(270, 66.9%, 61.7%)" stroke-width="1.5"></path><path d="M517.58 655.95L362.6 652.49" stroke="hsl(270, 66.9%, 61.7%)" stroke-width="1.5"></path><path d="M675.63 667.62L675.63 667.62" stroke="hsl(270, 66.9%, 61.7%)" stroke-width="1.5"></path><path d="M675.63 667.62L517.58 655.95" stroke="hsl(270, 66.9%, 61.7%)" stroke-width="1.5"></path><path d="M675.63 667.62L552.5 535.89" stroke="hsl(270, 66.9%, 61.7%)" stroke-width="1.5"></path><path d="M675.63 667.62L812.65 539.5" stroke="hsl(270, 66.9%, 61.7%)" stroke-width="1.5"></path><path d="M675.63 667.62L362.6 652.49" stroke="hsl(270, 66.9%, 61.7%)" stroke-width="1.5"></path><path d="M675.63 667.62L961.63 533.12" stroke="hsl(270, 66.9%, 61.7%)" stroke-width="1.5"></path><path d="M818.3 340.32L818.3 340.32" stroke="hsl(270, 66.9%, 61.7%)" stroke-width="1.5"></path><path d="M818.3 340.32L982.03 404.71" stroke="hsl(270, 66.9%, 61.7%)" stroke-width="1.5"></path><path d="M818.3 340.32L812.65 539.5" stroke="hsl(270, 66.9%, 61.7%)" stroke-width="1.5"></path><path d="M812.65 539.5L812.65 539.5" stroke="hsl(270, 66.9%, 61.7%)" stroke-width="1.5"></path><path d="M812.65 539.5L961.63 533.12" stroke="hsl(270, 66.9%, 61.7%)" stroke-width="1.5"></path><path d="M982.03 404.71L982.03 404.71" stroke="hsl(270, 66.9%, 61.7%)" stroke-width="1.5"></path><path d="M982.03 404.71L961.63 533.12" stroke="hsl(270, 66.9%, 61.7%)" stroke-width="1.5"></path><path d="M982.03 404.71L1146.49 396.69" stroke="hsl(270, 66.9%, 61.7%)" stroke-width="1.5"></path><path d="M982.03 404.71L1157.29 520.6" stroke="hsl(270, 66.9%, 61.7%)" stroke-width="1.5"></path><path d="M961.63 533.12L961.63 533.12" stroke="hsl(270, 66.9%, 61.7%)" stroke-width="1.5"></path><path d="M961.63 533.12L1105.12 662.6" stroke="hsl(270, 66.9%, 61.7%)" stroke-width="1.5"></path><path d="M961.63 533.12L1157.29 520.6" stroke="hsl(270, 66.9%, 61.7%)" stroke-width="1.5"></path><path d="M1129.87 222.47L1129.87 222.47" stroke="hsl(270, 66.9%, 61.7%)" stroke-width="1.5"></path><path d="M1129.87 222.47L1280.68 190.77" stroke="hsl(270, 66.9%, 61.7%)" stroke-width="1.5"></path><path d="M1129.87 222.47L1146.49 396.69" stroke="hsl(270, 66.9%, 61.7%)" stroke-width="1.5"></path><path d="M1129.87 222.47L1281.25 84.93" stroke="hsl(270, 66.9%, 61.7%)" stroke-width="1.5"></path><path d="M1129.87 222.47L1304.25 342.87" stroke="hsl(270, 66.9%, 61.7%)" stroke-width="1.5"></path><path d="M1129.87 222.47L982.03 404.71" stroke="hsl(270, 66.9%, 61.7%)" stroke-width="1.5"></path><path d="M1146.49 396.69L1146.49 396.69" stroke="hsl(270, 66.9%, 61.7%)" stroke-width="1.5"></path><path d="M1146.49 396.69L1157.29 520.6" stroke="hsl(270, 66.9%, 61.7%)" stroke-width="1.5"></path><path d="M1146.49 396.69L1304.25 342.87" stroke="hsl(270, 66.9%, 61.7%)" stroke-width="1.5"></path><path d="M1157.29 520.6L1157.29 520.6" stroke="hsl(270, 66.9%, 61.7%)" stroke-width="1.5"></path><path d="M1105.12 662.6L1105.12 662.6" stroke="hsl(270, 66.9%, 61.7%)" stroke-width="1.5"></path><path d="M1105.12 662.6L1157.29 520.6" stroke="hsl(270, 66.9%, 61.7%)" stroke-width="1.5"></path><path d="M1105.12 662.6L1295.94 692.74" stroke="hsl(270, 66.9%, 61.7%)" stroke-width="1.5"></path><path d="M1251.05 -50.65L1251.05 -50.65" stroke="hsl(270, 66.9%, 61.7%)" stroke-width="1.5"></path><path d="M1251.05 -50.65L1281.25 84.93" stroke="hsl(270, 66.9%, 61.7%)" stroke-width="1.5"></path><path d="M1251.05 -50.65L1423.35 46.11" stroke="hsl(270, 66.9%, 61.7%)" stroke-width="1.5"></path><path d="M1251.05 -50.65L1280.68 190.77" stroke="hsl(270, 66.9%, 61.7%)" stroke-width="1.5"></path><path d="M1251.05 -50.65L1129.87 222.47" stroke="hsl(270, 66.9%, 61.7%)" stroke-width="1.5"></path><path d="M1281.25 84.93L1281.25 84.93" stroke="hsl(270, 66.9%, 61.7%)" stroke-width="1.5"></path><path d="M1281.25 84.93L1280.68 190.77" stroke="hsl(270, 66.9%, 61.7%)" stroke-width="1.5"></path><path d="M1281.25 84.93L1436.23 207.02" stroke="hsl(270, 66.9%, 61.7%)" stroke-width="1.5"></path><path d="M1280.68 190.77L1280.68 190.77" stroke="hsl(270, 66.9%, 61.7%)" stroke-width="1.5"></path><path d="M1280.68 190.77L1304.25 342.87" stroke="hsl(270, 66.9%, 61.7%)" stroke-width="1.5"></path><path d="M1280.68 190.77L1436.23 207.02" stroke="hsl(270, 66.9%, 61.7%)" stroke-width="1.5"></path><path d="M1280.68 190.77L1423.35 46.11" stroke="hsl(270, 66.9%, 61.7%)" stroke-width="1.5"></path><path d="M1304.25 342.87L1304.25 342.87" stroke="hsl(270, 66.9%, 61.7%)" stroke-width="1.5"></path><path d="M1304.25 342.87L1460.1 337.76" stroke="hsl(270, 66.9%, 61.7%)" stroke-width="1.5"></path><path d="M1297.35 552.57L1297.35 552.57" stroke="hsl(270, 66.9%, 61.7%)" stroke-width="1.5"></path><path d="M1297.35 552.57L1295.94 692.74" stroke="hsl(270, 66.9%, 61.7%)" stroke-width="1.5"></path><path d="M1297.35 552.57L1157.29 520.6" stroke="hsl(270, 66.9%, 61.7%)" stroke-width="1.5"></path><path d="M1297.35 552.57L1443.36 511.65" stroke="hsl(270, 66.9%, 61.7%)" stroke-width="1.5"></path><path d="M1297.35 552.57L1442.52 658.37" stroke="hsl(270, 66.9%, 61.7%)" stroke-width="1.5"></path><path d="M1297.35 552.57L1304.25 342.87" stroke="hsl(270, 66.9%, 61.7%)" stroke-width="1.5"></path><path d="M1295.94 692.74L1295.94 692.74" stroke="hsl(270, 66.9%, 61.7%)" stroke-width="1.5"></path><path d="M1295.94 692.74L1442.52 658.37" stroke="hsl(270, 66.9%, 61.7%)" stroke-width="1.5"></path><path d="M1295.94 692.74L1157.29 520.6" stroke="hsl(270, 66.9%, 61.7%)" stroke-width="1.5"></path><path d="M1295.94 692.74L1443.36 511.65" stroke="hsl(270, 66.9%, 61.7%)" stroke-width="1.5"></path><path d="M1295.94 692.74L1589.14 677.73" stroke="hsl(270, 66.9%, 61.7%)" stroke-width="1.5"></path><path d="M1436.23 207.02L1436.23 207.02" stroke="hsl(270, 66.9%, 61.7%)" stroke-width="1.5"></path><path d="M1436.23 207.02L1460.1 337.76" stroke="hsl(270, 66.9%, 61.7%)" stroke-width="1.5"></path><path d="M1436.23 207.02L1606.51 247.94" stroke="hsl(270, 66.9%, 61.7%)" stroke-width="1.5"></path><path d="M1436.23 207.02L1304.25 342.87" stroke="hsl(270, 66.9%, 61.7%)" stroke-width="1.5"></path><path d="M1460.1 337.76L1460.1 337.76" stroke="hsl(270, 66.9%, 61.7%)" stroke-width="1.5"></path><path d="M1460.1 337.76L1589.09 409.29" stroke="hsl(270, 66.9%, 61.7%)" stroke-width="1.5"></path><path d="M1443.36 511.65L1443.36 511.65" stroke="hsl(270, 66.9%, 61.7%)" stroke-width="1.5"></path><path d="M1443.36 511.65L1442.52 658.37" stroke="hsl(270, 66.9%, 61.7%)" stroke-width="1.5"></path><path d="M1442.52 658.37L1442.52 658.37" stroke="hsl(270, 66.9%, 61.7%)" stroke-width="1.5"></path><path d="M1442.52 658.37L1589.14 677.73" stroke="hsl(270, 66.9%, 61.7%)" stroke-width="1.5"></path><path d="M1569.63 -96.4L1569.63 -96.4" stroke="hsl(270, 66.9%, 61.7%)" stroke-width="1.5"></path><path d="M1606.51 247.94L1606.51 247.94" stroke="hsl(270, 66.9%, 61.7%)" stroke-width="1.5"></path><path d="M1606.51 247.94L1589.09 409.29" stroke="hsl(270, 66.9%, 61.7%)" stroke-width="1.5"></path><path d="M1606.51 247.94L1460.1 337.76" stroke="hsl(270, 66.9%, 61.7%)" stroke-width="1.5"></path><path d="M1589.09 409.29L1589.09 409.29" stroke="hsl(270, 66.9%, 61.7%)" stroke-width="1.5"></path><path d="M1589.14 677.73L1589.14 677.73" stroke="hsl(270, 66.9%, 61.7%)" stroke-width="1.5"></path><path d="M1589.14 677.73L1443.36 511.65" stroke="hsl(270, 66.9%, 61.7%)" stroke-width="1.5"></path><path d="M1589.14 677.73L1589.09 409.29" stroke="hsl(270, 66.9%, 61.7%)" stroke-width="1.5"></path><path d="M1589.14 677.73L1297.35 552.57" stroke="hsl(270, 66.9%, 61.7%)" stroke-width="1.5"></path><circle r="25" cx="68.62" cy="492.36" fill="url(#SvgjsRadialGradient1019)"></circle><circle r="25" cx="244.6" cy="648.52" fill="url(#SvgjsRadialGradient1019)"></circle><circle r="25" cx="650.28" cy="542.74" fill="url(#SvgjsRadialGradient1019)"></circle><circle r="25" cx="1455.78" cy="-102.38" fill="url(#SvgjsRadialGradient1019)"></circle><circle r="25" cx="1423.35" cy="46.11" fill="url(#SvgjsRadialGradient1019)"></circle><circle r="25" cx="1586.86" cy="66.08" fill="url(#SvgjsRadialGradient1019)"></circle><circle r="25" cx="1607.64" cy="514.24" fill="url(#SvgjsRadialGradient1019)"></circle><circle r="5" cx="-49.56" cy="515.06" fill="#bc94e5"></circle><circle r="5" cx="-82.13" cy="672.57" fill="#bc94e5"></circle><circle r="5" cx="96.69" cy="654.19" fill="#bc94e5"></circle><circle r="5" cx="220.28" cy="543.24" fill="#bc94e5"></circle><circle r="5" cx="385.28" cy="521.23" fill="#bc94e5"></circle><circle r="5" cx="362.6" cy="652.49" fill="#bc94e5"></circle><circle r="5" cx="552.5" cy="535.89" fill="#bc94e5"></circle><circle r="5" cx="517.58" cy="655.95" fill="#bc94e5"></circle><circle r="5" cx="675.63" cy="667.62" fill="#bc94e5"></circle><circle r="5" cx="818.3" cy="340.32" fill="#bc94e5"></circle><circle r="5" cx="812.65" cy="539.5" fill="#bc94e5"></circle><circle r="5" cx="982.03" cy="404.71" fill="#bc94e5"></circle><circle r="5" cx="961.63" cy="533.12" fill="#bc94e5"></circle><circle r="5" cx="1129.87" cy="222.47" fill="#bc94e5"></circle><circle r="5" cx="1146.49" cy="396.69" fill="#bc94e5"></circle><circle r="5" cx="1157.29" cy="520.6" fill="#bc94e5"></circle><circle r="5" cx="1105.12" cy="662.6" fill="#bc94e5"></circle><circle r="5" cx="1251.05" cy="-50.65" fill="#bc94e5"></circle><circle r="5" cx="1281.25" cy="84.93" fill="#bc94e5"></circle><circle r="5" cx="1280.68" cy="190.77" fill="#bc94e5"></circle><circle r="5" cx="1304.25" cy="342.87" fill="#bc94e5"></circle><circle r="5" cx="1297.35" cy="552.57" fill="#bc94e5"></circle><circle r="5" cx="1295.94" cy="692.74" fill="#bc94e5"></circle><circle r="5" cx="1436.23" cy="207.02" fill="#bc94e5"></circle><circle r="5" cx="1460.1" cy="337.76" fill="#bc94e5"></circle><circle r="5" cx="1443.36" cy="511.65" fill="#bc94e5"></circle><circle r="5" cx="1442.52" cy="658.37" fill="#bc94e5"></circle><circle r="5" cx="1569.63" cy="-96.4" fill="#bc94e5"></circle><circle r="5" cx="1606.51" cy="247.94" fill="#bc94e5"></circle><circle r="5" cx="1589.09" cy="409.29" fill="#bc94e5"></circle><circle r="5" cx="1589.14" cy="677.73" fill="#bc94e5"></circle></g><defs><mask id="SvgjsMask1018"><rect width="1440" height="560" fill="#ffffff"></rect></mask><radialGradient id="SvgjsRadialGradient1019"><stop stop-color="#ffffff" offset="0.1"></stop><stop stop-color="rgba(121, 40, 202, 1)" offset="0.2"></stop><stop stop-color="rgba(121, 40, 202, 0)" offset="1"></stop></radialGradient></defs></svg>