<svg xmlns="http://www.w3.org/2000/svg" version="1.1" xmlns:xlink="http://www.w3.org/1999/xlink" xmlns:svgjs="http://svgjs.com/svgjs" width="1440" height="560" preserveAspectRatio="none" viewBox="0 0 1440 560"><g mask="url(&quot;#SvgjsMask1331&quot;)" fill="none"><path d="M101.75 -47.05L223.86 23.45L223.86 164.45L101.75 234.95L-20.36 164.45L-20.36 23.45zM101.75 375.95L223.86 446.45L223.86 587.45L101.75 657.95L-20.36 587.45L-20.36 446.45zM468.09 587.45L590.2 657.95L590.2 798.95L468.09 869.45L345.98 798.95L345.98 657.95zM712.32 164.45L834.43 234.95L834.43 375.95L712.32 446.45L590.2 375.95L590.2 234.95zM956.54 587.45L1078.65 657.95L1078.65 798.95L956.54 869.45L834.43 798.95L834.43 657.95zM1078.65 -47.05L1200.77 23.45L1200.77 164.45L1078.65 234.95L956.54 164.45L956.54 23.45zM1322.88 -47.05L1444.99 23.45L1444.99 164.45L1322.88 234.95L1200.77 164.45L1200.77 23.45z" stroke="rgba(121, 40, 202, 0.35)" stroke-width="2"></path><path d="M87.65 -47.05 a14.1 14.1 0 1 0 28.2 0 a14.1 14.1 0 1 0 -28.2 0zM209.76 23.45 a14.1 14.1 0 1 0 28.2 0 a14.1 14.1 0 1 0 -28.2 0zM209.76 164.45 a14.1 14.1 0 1 0 28.2 0 a14.1 14.1 0 1 0 -28.2 0zM87.65 234.95 a14.1 14.1 0 1 0 28.2 0 a14.1 14.1 0 1 0 -28.2 0zM-34.46 164.45 a14.1 14.1 0 1 0 28.2 0 a14.1 14.1 0 1 0 -28.2 0zM-34.46 23.45 a14.1 14.1 0 1 0 28.2 0 a14.1 14.1 0 1 0 -28.2 0zM87.65 375.95 a14.1 14.1 0 1 0 28.2 0 a14.1 14.1 0 1 0 -28.2 0zM209.76 446.45 a14.1 14.1 0 1 0 28.2 0 a14.1 14.1 0 1 0 -28.2 0zM209.76 587.45 a14.1 14.1 0 1 0 28.2 0 a14.1 14.1 0 1 0 -28.2 0zM87.65 657.95 a14.1 14.1 0 1 0 28.2 0 a14.1 14.1 0 1 0 -28.2 0zM-34.46 587.45 a14.1 14.1 0 1 0 28.2 0 a14.1 14.1 0 1 0 -28.2 0zM-34.46 446.45 a14.1 14.1 0 1 0 28.2 0 a14.1 14.1 0 1 0 -28.2 0zM453.99 587.45 a14.1 14.1 0 1 0 28.2 0 a14.1 14.1 0 1 0 -28.2 0zM576.1 657.95 a14.1 14.1 0 1 0 28.2 0 a14.1 14.1 0 1 0 -28.2 0zM576.1 798.95 a14.1 14.1 0 1 0 28.2 0 a14.1 14.1 0 1 0 -28.2 0zM453.99 869.45 a14.1 14.1 0 1 0 28.2 0 a14.1 14.1 0 1 0 -28.2 0zM331.88 798.95 a14.1 14.1 0 1 0 28.2 0 a14.1 14.1 0 1 0 -28.2 0zM331.88 657.95 a14.1 14.1 0 1 0 28.2 0 a14.1 14.1 0 1 0 -28.2 0zM698.22 164.45 a14.1 14.1 0 1 0 28.2 0 a14.1 14.1 0 1 0 -28.2 0zM820.33 234.95 a14.1 14.1 0 1 0 28.2 0 a14.1 14.1 0 1 0 -28.2 0zM820.33 375.95 a14.1 14.1 0 1 0 28.2 0 a14.1 14.1 0 1 0 -28.2 0zM698.22 446.45 a14.1 14.1 0 1 0 28.2 0 a14.1 14.1 0 1 0 -28.2 0zM576.1 375.95 a14.1 14.1 0 1 0 28.2 0 a14.1 14.1 0 1 0 -28.2 0zM576.1 234.95 a14.1 14.1 0 1 0 28.2 0 a14.1 14.1 0 1 0 -28.2 0zM942.44 587.45 a14.1 14.1 0 1 0 28.2 0 a14.1 14.1 0 1 0 -28.2 0zM1064.55 657.95 a14.1 14.1 0 1 0 28.2 0 a14.1 14.1 0 1 0 -28.2 0zM1064.55 798.95 a14.1 14.1 0 1 0 28.2 0 a14.1 14.1 0 1 0 -28.2 0zM942.44 869.45 a14.1 14.1 0 1 0 28.2 0 a14.1 14.1 0 1 0 -28.2 0zM820.33 798.95 a14.1 14.1 0 1 0 28.2 0 a14.1 14.1 0 1 0 -28.2 0zM820.33 657.95 a14.1 14.1 0 1 0 28.2 0 a14.1 14.1 0 1 0 -28.2 0zM1064.55 -47.05 a14.1 14.1 0 1 0 28.2 0 a14.1 14.1 0 1 0 -28.2 0zM1186.67 23.45 a14.1 14.1 0 1 0 28.2 0 a14.1 14.1 0 1 0 -28.2 0zM1186.67 164.45 a14.1 14.1 0 1 0 28.2 0 a14.1 14.1 0 1 0 -28.2 0zM1064.55 234.95 a14.1 14.1 0 1 0 28.2 0 a14.1 14.1 0 1 0 -28.2 0zM942.44 164.45 a14.1 14.1 0 1 0 28.2 0 a14.1 14.1 0 1 0 -28.2 0zM942.44 23.45 a14.1 14.1 0 1 0 28.2 0 a14.1 14.1 0 1 0 -28.2 0zM1308.78 -47.05 a14.1 14.1 0 1 0 28.2 0 a14.1 14.1 0 1 0 -28.2 0zM1430.89 23.45 a14.1 14.1 0 1 0 28.2 0 a14.1 14.1 0 1 0 -28.2 0zM1430.89 164.45 a14.1 14.1 0 1 0 28.2 0 a14.1 14.1 0 1 0 -28.2 0zM1308.78 234.95 a14.1 14.1 0 1 0 28.2 0 a14.1 14.1 0 1 0 -28.2 0z" fill="rgba(121, 40, 202, 0.35)"></path><path d="M25.67 418.37L68.11 442.87L68.11 491.87L25.67 516.37L-16.77 491.87L-16.77 442.87zM110.54 271.37L152.98 295.87L152.98 344.87L110.54 369.37L68.11 344.87L68.11 295.87zM195.42 -22.63L237.85 1.87L237.85 50.87L195.42 75.37L152.98 50.87L152.98 1.87zM237.85 344.87L280.29 369.37L280.29 418.37L237.85 442.87L195.42 418.37L195.42 369.37zM280.29 124.37L322.73 148.87L322.73 197.87L280.29 222.37L237.85 197.87L237.85 148.87zM365.16 -22.63L407.6 1.87L407.6 50.87L365.16 75.37L322.73 50.87L322.73 1.87zM450.03 -22.63L492.47 1.87L492.47 50.87L450.03 75.37L407.6 50.87L407.6 1.87zM534.91 -22.63L577.34 1.87L577.34 50.87L534.91 75.37L492.47 50.87L492.47 1.87zM534.91 271.37L577.34 295.87L577.34 344.87L534.91 369.37L492.47 344.87L492.47 295.87zM534.91 418.37L577.34 442.87L577.34 491.87L534.91 516.37L492.47 491.87L492.47 442.87zM577.34 491.87L619.78 516.37L619.78 565.37L577.34 589.87L534.91 565.37L534.91 516.37zM534.91 565.37L577.34 589.87L577.34 638.87L534.91 663.37L492.47 638.87L492.47 589.87zM662.22 50.87L704.65 75.37L704.65 124.37L662.22 148.87L619.78 124.37L619.78 75.37zM662.22 197.87L704.65 222.37L704.65 271.37L662.22 295.87L619.78 271.37L619.78 222.37zM704.65 565.37L747.09 589.87L747.09 638.87L704.65 663.37L662.22 638.87L662.22 589.87zM831.96 50.87L874.4 75.37L874.4 124.37L831.96 148.87L789.53 124.37L789.53 75.37zM789.53 124.37L831.96 148.87L831.96 197.87L789.53 222.37L747.09 197.87L747.09 148.87zM789.53 565.37L831.96 589.87L831.96 638.87L789.53 663.37L747.09 638.87L747.09 589.87zM916.84 197.87L959.27 222.37L959.27 271.37L916.84 295.87L874.4 271.37L874.4 222.37zM1001.71 197.87L1044.14 222.37L1044.14 271.37L1001.71 295.87L959.27 271.37L959.27 222.37zM1086.58 491.87L1129.02 516.37L1129.02 565.37L1086.58 589.87L1044.14 565.37L1044.14 516.37zM1044.14 565.37L1086.58 589.87L1086.58 638.87L1044.14 663.37L1001.71 638.87L1001.71 589.87zM1256.33 344.87L1298.76 369.37L1298.76 418.37L1256.33 442.87L1213.89 418.37L1213.89 369.37zM1298.76 565.37L1341.2 589.87L1341.2 638.87L1298.76 663.37L1256.33 638.87L1256.33 589.87zM1383.64 124.37L1426.07 148.87L1426.07 197.87L1383.64 222.37L1341.2 197.87L1341.2 148.87z" stroke="rgba(255, 0, 128, 0.2901960784313726)" stroke-width="2"></path><path d="M20.77 418.37 a4.9 4.9 0 1 0 9.8 0 a4.9 4.9 0 1 0 -9.8 0zM63.21 442.87 a4.9 4.9 0 1 0 9.8 0 a4.9 4.9 0 1 0 -9.8 0zM63.21 491.87 a4.9 4.9 0 1 0 9.8 0 a4.9 4.9 0 1 0 -9.8 0zM20.77 516.37 a4.9 4.9 0 1 0 9.8 0 a4.9 4.9 0 1 0 -9.8 0zM-21.67 491.87 a4.9 4.9 0 1 0 9.8 0 a4.9 4.9 0 1 0 -9.8 0zM-21.67 442.87 a4.9 4.9 0 1 0 9.8 0 a4.9 4.9 0 1 0 -9.8 0zM105.64 271.37 a4.9 4.9 0 1 0 9.8 0 a4.9 4.9 0 1 0 -9.8 0zM148.08 295.87 a4.9 4.9 0 1 0 9.8 0 a4.9 4.9 0 1 0 -9.8 0zM148.08 344.87 a4.9 4.9 0 1 0 9.8 0 a4.9 4.9 0 1 0 -9.8 0zM105.64 369.37 a4.9 4.9 0 1 0 9.8 0 a4.9 4.9 0 1 0 -9.8 0zM63.21 344.87 a4.9 4.9 0 1 0 9.8 0 a4.9 4.9 0 1 0 -9.8 0zM63.21 295.87 a4.9 4.9 0 1 0 9.8 0 a4.9 4.9 0 1 0 -9.8 0zM190.52 -22.63 a4.9 4.9 0 1 0 9.8 0 a4.9 4.9 0 1 0 -9.8 0zM232.95 1.87 a4.9 4.9 0 1 0 9.8 0 a4.9 4.9 0 1 0 -9.8 0zM232.95 50.87 a4.9 4.9 0 1 0 9.8 0 a4.9 4.9 0 1 0 -9.8 0zM190.52 75.37 a4.9 4.9 0 1 0 9.8 0 a4.9 4.9 0 1 0 -9.8 0zM148.08 50.87 a4.9 4.9 0 1 0 9.8 0 a4.9 4.9 0 1 0 -9.8 0zM148.08 1.87 a4.9 4.9 0 1 0 9.8 0 a4.9 4.9 0 1 0 -9.8 0zM232.95 344.87 a4.9 4.9 0 1 0 9.8 0 a4.9 4.9 0 1 0 -9.8 0zM275.39 369.37 a4.9 4.9 0 1 0 9.8 0 a4.9 4.9 0 1 0 -9.8 0zM275.39 418.37 a4.9 4.9 0 1 0 9.8 0 a4.9 4.9 0 1 0 -9.8 0zM232.95 442.87 a4.9 4.9 0 1 0 9.8 0 a4.9 4.9 0 1 0 -9.8 0zM190.52 418.37 a4.9 4.9 0 1 0 9.8 0 a4.9 4.9 0 1 0 -9.8 0zM190.52 369.37 a4.9 4.9 0 1 0 9.8 0 a4.9 4.9 0 1 0 -9.8 0zM275.39 124.37 a4.9 4.9 0 1 0 9.8 0 a4.9 4.9 0 1 0 -9.8 0zM317.83 148.87 a4.9 4.9 0 1 0 9.8 0 a4.9 4.9 0 1 0 -9.8 0zM317.83 197.87 a4.9 4.9 0 1 0 9.8 0 a4.9 4.9 0 1 0 -9.8 0zM275.39 222.37 a4.9 4.9 0 1 0 9.8 0 a4.9 4.9 0 1 0 -9.8 0zM232.95 197.87 a4.9 4.9 0 1 0 9.8 0 a4.9 4.9 0 1 0 -9.8 0zM232.95 148.87 a4.9 4.9 0 1 0 9.8 0 a4.9 4.9 0 1 0 -9.8 0zM360.26 -22.63 a4.9 4.9 0 1 0 9.8 0 a4.9 4.9 0 1 0 -9.8 0zM402.7 1.87 a4.9 4.9 0 1 0 9.8 0 a4.9 4.9 0 1 0 -9.8 0zM402.7 50.87 a4.9 4.9 0 1 0 9.8 0 a4.9 4.9 0 1 0 -9.8 0zM360.26 75.37 a4.9 4.9 0 1 0 9.8 0 a4.9 4.9 0 1 0 -9.8 0zM317.83 50.87 a4.9 4.9 0 1 0 9.8 0 a4.9 4.9 0 1 0 -9.8 0zM317.83 1.87 a4.9 4.9 0 1 0 9.8 0 a4.9 4.9 0 1 0 -9.8 0zM445.13 -22.63 a4.9 4.9 0 1 0 9.8 0 a4.9 4.9 0 1 0 -9.8 0zM487.57 1.87 a4.9 4.9 0 1 0 9.8 0 a4.9 4.9 0 1 0 -9.8 0zM487.57 50.87 a4.9 4.9 0 1 0 9.8 0 a4.9 4.9 0 1 0 -9.8 0zM445.13 75.37 a4.9 4.9 0 1 0 9.8 0 a4.9 4.9 0 1 0 -9.8 0zM530.01 -22.63 a4.9 4.9 0 1 0 9.8 0 a4.9 4.9 0 1 0 -9.8 0zM572.44 1.87 a4.9 4.9 0 1 0 9.8 0 a4.9 4.9 0 1 0 -9.8 0zM572.44 50.87 a4.9 4.9 0 1 0 9.8 0 a4.9 4.9 0 1 0 -9.8 0zM530.01 75.37 a4.9 4.9 0 1 0 9.8 0 a4.9 4.9 0 1 0 -9.8 0zM530.01 271.37 a4.9 4.9 0 1 0 9.8 0 a4.9 4.9 0 1 0 -9.8 0zM572.44 295.87 a4.9 4.9 0 1 0 9.8 0 a4.9 4.9 0 1 0 -9.8 0zM572.44 344.87 a4.9 4.9 0 1 0 9.8 0 a4.9 4.9 0 1 0 -9.8 0zM530.01 369.37 a4.9 4.9 0 1 0 9.8 0 a4.9 4.9 0 1 0 -9.8 0zM487.57 344.87 a4.9 4.9 0 1 0 9.8 0 a4.9 4.9 0 1 0 -9.8 0zM487.57 295.87 a4.9 4.9 0 1 0 9.8 0 a4.9 4.9 0 1 0 -9.8 0zM530.01 418.37 a4.9 4.9 0 1 0 9.8 0 a4.9 4.9 0 1 0 -9.8 0zM572.44 442.87 a4.9 4.9 0 1 0 9.8 0 a4.9 4.9 0 1 0 -9.8 0zM572.44 491.87 a4.9 4.9 0 1 0 9.8 0 a4.9 4.9 0 1 0 -9.8 0zM530.01 516.37 a4.9 4.9 0 1 0 9.8 0 a4.9 4.9 0 1 0 -9.8 0zM487.57 491.87 a4.9 4.9 0 1 0 9.8 0 a4.9 4.9 0 1 0 -9.8 0zM487.57 442.87 a4.9 4.9 0 1 0 9.8 0 a4.9 4.9 0 1 0 -9.8 0zM614.88 516.37 a4.9 4.9 0 1 0 9.8 0 a4.9 4.9 0 1 0 -9.8 0zM614.88 565.37 a4.9 4.9 0 1 0 9.8 0 a4.9 4.9 0 1 0 -9.8 0zM572.44 589.87 a4.9 4.9 0 1 0 9.8 0 a4.9 4.9 0 1 0 -9.8 0zM530.01 565.37 a4.9 4.9 0 1 0 9.8 0 a4.9 4.9 0 1 0 -9.8 0zM572.44 638.87 a4.9 4.9 0 1 0 9.8 0 a4.9 4.9 0 1 0 -9.8 0zM530.01 663.37 a4.9 4.9 0 1 0 9.8 0 a4.9 4.9 0 1 0 -9.8 0zM487.57 638.87 a4.9 4.9 0 1 0 9.8 0 a4.9 4.9 0 1 0 -9.8 0zM487.57 589.87 a4.9 4.9 0 1 0 9.8 0 a4.9 4.9 0 1 0 -9.8 0zM657.32 50.87 a4.9 4.9 0 1 0 9.8 0 a4.9 4.9 0 1 0 -9.8 0zM699.75 75.37 a4.9 4.9 0 1 0 9.8 0 a4.9 4.9 0 1 0 -9.8 0zM699.75 124.37 a4.9 4.9 0 1 0 9.8 0 a4.9 4.9 0 1 0 -9.8 0zM657.32 148.87 a4.9 4.9 0 1 0 9.8 0 a4.9 4.9 0 1 0 -9.8 0zM614.88 124.37 a4.9 4.9 0 1 0 9.8 0 a4.9 4.9 0 1 0 -9.8 0zM614.88 75.37 a4.9 4.9 0 1 0 9.8 0 a4.9 4.9 0 1 0 -9.8 0zM657.32 197.87 a4.9 4.9 0 1 0 9.8 0 a4.9 4.9 0 1 0 -9.8 0zM699.75 222.37 a4.9 4.9 0 1 0 9.8 0 a4.9 4.9 0 1 0 -9.8 0zM699.75 271.37 a4.9 4.9 0 1 0 9.8 0 a4.9 4.9 0 1 0 -9.8 0zM657.32 295.87 a4.9 4.9 0 1 0 9.8 0 a4.9 4.9 0 1 0 -9.8 0zM614.88 271.37 a4.9 4.9 0 1 0 9.8 0 a4.9 4.9 0 1 0 -9.8 0zM614.88 222.37 a4.9 4.9 0 1 0 9.8 0 a4.9 4.9 0 1 0 -9.8 0zM699.75 565.37 a4.9 4.9 0 1 0 9.8 0 a4.9 4.9 0 1 0 -9.8 0zM742.19 589.87 a4.9 4.9 0 1 0 9.8 0 a4.9 4.9 0 1 0 -9.8 0zM742.19 638.87 a4.9 4.9 0 1 0 9.8 0 a4.9 4.9 0 1 0 -9.8 0zM699.75 663.37 a4.9 4.9 0 1 0 9.8 0 a4.9 4.9 0 1 0 -9.8 0zM657.32 638.87 a4.9 4.9 0 1 0 9.8 0 a4.9 4.9 0 1 0 -9.8 0zM657.32 589.87 a4.9 4.9 0 1 0 9.8 0 a4.9 4.9 0 1 0 -9.8 0zM827.06 50.87 a4.9 4.9 0 1 0 9.8 0 a4.9 4.9 0 1 0 -9.8 0zM869.5 75.37 a4.9 4.9 0 1 0 9.8 0 a4.9 4.9 0 1 0 -9.8 0zM869.5 124.37 a4.9 4.9 0 1 0 9.8 0 a4.9 4.9 0 1 0 -9.8 0zM827.06 148.87 a4.9 4.9 0 1 0 9.8 0 a4.9 4.9 0 1 0 -9.8 0zM784.63 124.37 a4.9 4.9 0 1 0 9.8 0 a4.9 4.9 0 1 0 -9.8 0zM784.63 75.37 a4.9 4.9 0 1 0 9.8 0 a4.9 4.9 0 1 0 -9.8 0zM827.06 197.87 a4.9 4.9 0 1 0 9.8 0 a4.9 4.9 0 1 0 -9.8 0zM784.63 222.37 a4.9 4.9 0 1 0 9.8 0 a4.9 4.9 0 1 0 -9.8 0zM742.19 197.87 a4.9 4.9 0 1 0 9.8 0 a4.9 4.9 0 1 0 -9.8 0zM742.19 148.87 a4.9 4.9 0 1 0 9.8 0 a4.9 4.9 0 1 0 -9.8 0zM784.63 565.37 a4.9 4.9 0 1 0 9.8 0 a4.9 4.9 0 1 0 -9.8 0zM827.06 589.87 a4.9 4.9 0 1 0 9.8 0 a4.9 4.9 0 1 0 -9.8 0zM827.06 638.87 a4.9 4.9 0 1 0 9.8 0 a4.9 4.9 0 1 0 -9.8 0zM784.63 663.37 a4.9 4.9 0 1 0 9.8 0 a4.9 4.9 0 1 0 -9.8 0zM911.94 197.87 a4.9 4.9 0 1 0 9.8 0 a4.9 4.9 0 1 0 -9.8 0zM954.37 222.37 a4.9 4.9 0 1 0 9.8 0 a4.9 4.9 0 1 0 -9.8 0zM954.37 271.37 a4.9 4.9 0 1 0 9.8 0 a4.9 4.9 0 1 0 -9.8 0zM911.94 295.87 a4.9 4.9 0 1 0 9.8 0 a4.9 4.9 0 1 0 -9.8 0zM869.5 271.37 a4.9 4.9 0 1 0 9.8 0 a4.9 4.9 0 1 0 -9.8 0zM869.5 222.37 a4.9 4.9 0 1 0 9.8 0 a4.9 4.9 0 1 0 -9.8 0zM996.81 197.87 a4.9 4.9 0 1 0 9.8 0 a4.9 4.9 0 1 0 -9.8 0zM1039.24 222.37 a4.9 4.9 0 1 0 9.8 0 a4.9 4.9 0 1 0 -9.8 0zM1039.24 271.37 a4.9 4.9 0 1 0 9.8 0 a4.9 4.9 0 1 0 -9.8 0zM996.81 295.87 a4.9 4.9 0 1 0 9.8 0 a4.9 4.9 0 1 0 -9.8 0zM1081.68 491.87 a4.9 4.9 0 1 0 9.8 0 a4.9 4.9 0 1 0 -9.8 0zM1124.12 516.37 a4.9 4.9 0 1 0 9.8 0 a4.9 4.9 0 1 0 -9.8 0zM1124.12 565.37 a4.9 4.9 0 1 0 9.8 0 a4.9 4.9 0 1 0 -9.8 0zM1081.68 589.87 a4.9 4.9 0 1 0 9.8 0 a4.9 4.9 0 1 0 -9.8 0zM1039.24 565.37 a4.9 4.9 0 1 0 9.8 0 a4.9 4.9 0 1 0 -9.8 0zM1039.24 516.37 a4.9 4.9 0 1 0 9.8 0 a4.9 4.9 0 1 0 -9.8 0zM1081.68 638.87 a4.9 4.9 0 1 0 9.8 0 a4.9 4.9 0 1 0 -9.8 0zM1039.24 663.37 a4.9 4.9 0 1 0 9.8 0 a4.9 4.9 0 1 0 -9.8 0zM996.81 638.87 a4.9 4.9 0 1 0 9.8 0 a4.9 4.9 0 1 0 -9.8 0zM996.81 589.87 a4.9 4.9 0 1 0 9.8 0 a4.9 4.9 0 1 0 -9.8 0zM1251.43 344.87 a4.9 4.9 0 1 0 9.8 0 a4.9 4.9 0 1 0 -9.8 0zM1293.86 369.37 a4.9 4.9 0 1 0 9.8 0 a4.9 4.9 0 1 0 -9.8 0zM1293.86 418.37 a4.9 4.9 0 1 0 9.8 0 a4.9 4.9 0 1 0 -9.8 0zM1251.43 442.87 a4.9 4.9 0 1 0 9.8 0 a4.9 4.9 0 1 0 -9.8 0zM1208.99 418.37 a4.9 4.9 0 1 0 9.8 0 a4.9 4.9 0 1 0 -9.8 0zM1208.99 369.37 a4.9 4.9 0 1 0 9.8 0 a4.9 4.9 0 1 0 -9.8 0zM1293.86 565.37 a4.9 4.9 0 1 0 9.8 0 a4.9 4.9 0 1 0 -9.8 0zM1336.3 589.87 a4.9 4.9 0 1 0 9.8 0 a4.9 4.9 0 1 0 -9.8 0zM1336.3 638.87 a4.9 4.9 0 1 0 9.8 0 a4.9 4.9 0 1 0 -9.8 0zM1293.86 663.37 a4.9 4.9 0 1 0 9.8 0 a4.9 4.9 0 1 0 -9.8 0zM1251.43 638.87 a4.9 4.9 0 1 0 9.8 0 a4.9 4.9 0 1 0 -9.8 0zM1251.43 589.87 a4.9 4.9 0 1 0 9.8 0 a4.9 4.9 0 1 0 -9.8 0zM1378.74 124.37 a4.9 4.9 0 1 0 9.8 0 a4.9 4.9 0 1 0 -9.8 0zM1421.17 148.87 a4.9 4.9 0 1 0 9.8 0 a4.9 4.9 0 1 0 -9.8 0zM1421.17 197.87 a4.9 4.9 0 1 0 9.8 0 a4.9 4.9 0 1 0 -9.8 0zM1378.74 222.37 a4.9 4.9 0 1 0 9.8 0 a4.9 4.9 0 1 0 -9.8 0zM1336.3 197.87 a4.9 4.9 0 1 0 9.8 0 a4.9 4.9 0 1 0 -9.8 0zM1336.3 148.87 a4.9 4.9 0 1 0 9.8 0 a4.9 4.9 0 1 0 -9.8 0z" fill="rgba(255, 0, 128, 0.2901960784313726)"></path><path d="M231.25 268.46L290.15 302.46L290.15 370.46L231.25 404.46L172.36 370.46L172.36 302.46zM172.36 370.46L231.25 404.46L231.25 472.46L172.36 506.46L113.47 472.46L113.47 404.46zM290.15 370.46L349.04 404.46L349.04 472.46L290.15 506.46L231.25 472.46L231.25 404.46zM466.82 472.46L525.71 506.46L525.71 574.46L466.82 608.46L407.93 574.46L407.93 506.46zM525.71 166.46L584.6 200.46L584.6 268.46L525.71 302.46L466.82 268.46L466.82 200.46zM702.39 268.46L761.28 302.46L761.28 370.46L702.39 404.46L643.49 370.46L643.49 302.46zM820.17 64.46L879.06 98.46L879.06 166.46L820.17 200.46L761.28 166.46L761.28 98.46zM879.06 -37.54L937.95 -3.54L937.95 64.46L879.06 98.46L820.17 64.46L820.17 -3.54zM1055.73 64.46L1114.63 98.46L1114.63 166.46L1055.73 200.46L996.84 166.46L996.84 98.46zM1114.63 -37.54L1173.52 -3.54L1173.52 64.46L1114.63 98.46L1055.73 64.46L1055.73 -3.54zM1291.3 268.46L1350.19 302.46L1350.19 370.46L1291.3 404.46L1232.41 370.46L1232.41 302.46zM1232.41 370.46L1291.3 404.46L1291.3 472.46L1232.41 506.46L1173.52 472.46L1173.52 404.46zM1409.08 64.46L1467.97 98.46L1467.97 166.46L1409.08 200.46L1350.19 166.46L1350.19 98.46zM1350.19 166.46L1409.08 200.46L1409.08 268.46L1350.19 302.46L1291.3 268.46L1291.3 200.46zM1526.86 268.46L1585.76 302.46L1585.76 370.46L1526.86 404.46L1467.97 370.46L1467.97 302.46zM1526.86 472.46L1585.76 506.46L1585.76 574.46L1526.86 608.46L1467.97 574.46L1467.97 506.46z" stroke="rgba(0, 223, 216, 0.29)" stroke-width="2"></path></g><defs><mask id="SvgjsMask1331"><rect width="1440" height="560" fill="#ffffff"></rect></mask></defs></svg>