<?xml version="1.0" standalone="no"?>
<!DOCTYPE svg PUBLIC "-//W3C//DTD SVG 20010904//EN"
 "http://www.w3.org/TR/2001/REC-SVG-20010904/DTD/svg10.dtd">
<svg version="1.0" xmlns="http://www.w3.org/2000/svg"
 width="100.000000pt" height="100.000000pt" viewBox="0 0 100.000000 100.000000"
 preserveAspectRatio="xMidYMid meet">

<g transform="translate(0.000000,100.000000) scale(0.100000,-0.100000)"
fill="#000000" stroke="none">
<path d="M0 500 l0 -190 65 0 65 0 0 80 0 80 40 0 c39 0 40 1 40 35 0 34 -1
35 -40 35 -39 0 -40 1 -40 35 0 35 0 35 45 35 l45 0 0 40 0 40 -110 0 -110 0
0 -190z"/>
<path d="M250 500 l0 -190 55 0 55 0 0 117 c0 64 2 114 5 111 3 -2 14 -55 26
-116 l21 -112 39 0 c22 0 39 1 39 3 0 17 40 221 44 225 3 3 6 -47 6 -111 l0
-117 55 0 55 0 0 190 0 190 -84 0 -84 0 -11 -63 c-6 -35 -11 -71 -11 -81 0
-42 -18 0 -29 69 l-12 75 -85 0 -84 0 0 -190z"/>
<path d="M700 501 l0 -191 103 0 c126 0 174 12 187 46 13 33 13 245 0 278 -14
39 -46 49 -172 54 l-118 5 0 -192z m168 0 c-3 -101 -5 -116 -20 -119 -16 -3
-18 8 -18 121 0 121 1 125 20 120 19 -5 20 -12 18 -122z"/>
</g>
</svg>
